# Blender v2.76 (sub 0) OBJ File: 'Level2.blend'
# www.blender.org
mtllib TestEntrancePlane.mtl
o Plane
v -4.000000 0.119406 7.000000
v 4.000000 0.324579 7.000000
v -4.000000 0.000000 -7.000000
v 4.000000 0.428778 -7.000000
v -4.000000 0.000000 -4.666667
v -4.000000 -0.171653 -2.333333
v -4.000000 -0.270206 0.000000
v -4.000000 0.000000 2.333333
v -4.000000 -0.071809 4.666667
v 4.000000 0.548239 4.666667
v 4.000000 0.526169 2.333333
v 4.000000 0.000000 -0.000000
v 4.000000 0.000000 -2.333333
v 4.000000 0.381362 -4.666667
v -2.666667 0.095553 7.000000
v -1.333333 0.000000 7.000000
v 0.000000 0.000000 7.000000
v 1.333333 0.000000 7.000000
v 2.666667 0.179550 7.000000
v 2.666667 0.310133 -7.000000
v 1.333333 0.214451 -7.000000
v -0.000000 0.095681 -7.000000
v -1.333333 0.000000 -7.000000
v -2.666667 0.000000 -7.000000
v 2.666667 0.235886 4.666667
v 1.333333 0.047214 4.666667
v -0.000000 0.159764 4.666667
v -1.333333 0.000000 4.666667
v -2.666667 0.000000 4.666667
v 2.666667 0.414839 2.333333
v 1.333333 0.000000 2.333333
v -0.000000 -0.158037 2.333333
v -1.333333 0.000000 2.333333
v -2.666667 0.000000 2.333333
v 2.666667 0.000000 -0.000000
v 1.333333 0.068564 -0.000000
v -0.000000 0.000000 0.000000
v -1.333333 0.000000 0.000000
v -2.666667 -0.238635 0.000000
v 2.666667 0.105318 -2.333333
v 1.333333 0.123444 -2.333333
v -0.000000 -0.147367 -2.333333
v -1.333333 0.067472 -2.333333
v -2.666667 -0.271678 -2.333333
v 2.666667 0.310133 -4.666667
v 1.333333 0.191134 -4.666667
v -0.000000 -0.055390 -4.666667
v -1.333333 -0.211451 -4.666667
v -2.666667 0.000000 -4.666667
vt 0.824016 0.833565
vt 0.988281 0.835793
vt 0.986452 0.999900
vt 0.822000 0.997735
vt 0.822160 0.002499
vt 0.987054 0.000100
vt 0.992279 0.165719
vt 0.824714 0.166955
vt 0.994213 0.330445
vt 0.830079 0.331740
vt 0.991423 0.503354
vt 0.825963 0.501339
vt 0.990198 0.667543
vt 0.825151 0.667406
vt 0.000507 0.666619
vt 0.164501 0.665499
vt 0.164163 0.831067
vt 0.000592 0.831417
vt 0.330239 0.663432
vt 0.328938 0.828303
vt 0.493447 0.666391
vt 0.493342 0.829829
vt 0.659862 0.666744
vt 0.659166 0.831591
vt 0.000112 0.502520
vt 0.163868 0.502093
vt 0.329391 0.500715
vt 0.494400 0.501131
vt 0.660039 0.501161
vt 0.000417 0.336174
vt 0.164827 0.336360
vt 0.329414 0.336349
vt 0.493961 0.335969
vt 0.660004 0.334915
vt 0.000100 0.171847
vt 0.164837 0.171609
vt 0.329730 0.171372
vt 0.494786 0.170083
vt 0.658955 0.168937
vt 0.000397 0.006520
vt 0.164651 0.006693
vt 0.329231 0.006773
vt 0.493291 0.005843
vt 0.657120 0.004322
vt 0.165143 0.994664
vt 0.001184 0.995382
vt 0.329135 0.993441
vt 0.493378 0.994324
vt 0.657655 0.995817
vn -0.044100 0.997800 0.049600
vn -0.029400 0.997300 0.067400
vn -0.071000 0.997400 0.010100
vn -0.075600 0.997100 0.007500
vn -0.152700 0.987400 0.040500
vn -0.168700 0.983900 0.059000
vn -0.162800 0.985600 0.046000
vn -0.171000 0.984600 0.035500
vn -0.100000 0.991600 -0.082100
vn -0.137200 0.989100 -0.053300
vn -0.000700 0.996100 -0.088100
vn -0.024400 0.998200 -0.053900
vn 0.026200 0.996900 0.073500
vn 0.011700 0.998100 0.060100
vn 0.031500 0.998000 0.054400
vn -0.049500 0.998400 0.028700
vn 0.017300 0.999200 0.034700
vn 0.018700 0.998700 0.047300
vn -0.039600 0.999100 -0.012900
vn -0.010200 0.999700 0.020300
vn -0.053900 0.998500 -0.010800
vn -0.099900 0.994600 0.027100
vn -0.080800 0.996300 0.026700
vn -0.111100 0.993200 0.033500
vn 0.007000 0.998800 -0.047200
vn -0.072100 0.996800 -0.034600
vn -0.040800 0.999100 -0.006700
vn -0.018000 0.999800 0.011400
vn -0.076900 0.997000 -0.002600
vn -0.019400 0.998700 -0.046600
vn -0.032000 0.998800 -0.036000
vn -0.007600 0.999700 -0.021300
vn -0.010800 0.999800 -0.015800
vn -0.113000 0.993400 -0.018900
vn -0.022400 0.999500 -0.022900
vn -0.002300 0.999800 -0.016600
vn -0.006100 0.999900 -0.013600
vn -0.008800 0.999800 -0.016800
vn -0.083600 0.996500 0.004000
vn -0.017900 0.998000 -0.061300
vn 0.008900 0.999100 -0.040900
vn -0.012000 0.999900 0.006800
vn -0.008800 0.999200 0.039200
vn -0.047400 0.998300 0.033300
vn 0.039500 0.999000 0.022600
vn 0.000000 1.000000 0.000000
vn -0.007600 0.998100 0.061400
vn -0.114800 0.991700 0.057000
vn -0.108000 0.993900 0.021000
usemtl Material.001
s 1
f 45/1/1 14/2/2 4/3/3 20/4/4
f 19/5/5 2/6/6 10/7/7 25/8/8
f 25/8/8 10/7/7 11/9/9 30/10/10
f 30/10/10 11/9/9 12/11/11 35/12/12
f 35/12/12 12/11/11 13/13/13 40/14/14
f 40/14/14 13/13/13 14/2/2 45/1/1
f 6/15/15 44/16/16 49/17/17 5/18/18
f 44/16/16 43/19/19 48/20/20 49/17/17
f 43/19/19 42/21/21 47/22/22 48/20/20
f 42/21/21 41/23/23 46/24/24 47/22/22
f 41/23/23 40/14/14 45/1/1 46/24/24
f 7/25/25 39/26/26 44/16/16 6/15/15
f 39/26/26 38/27/27 43/19/19 44/16/16
f 38/27/27 37/28/28 42/21/21 43/19/19
f 37/28/28 36/29/29 41/23/23 42/21/21
f 36/29/29 35/12/12 40/14/14 41/23/23
f 8/30/30 34/31/31 39/26/26 7/25/25
f 34/31/31 33/32/32 38/27/27 39/26/26
f 33/32/32 32/33/33 37/28/28 38/27/27
f 32/33/33 31/34/34 36/29/29 37/28/28
f 31/34/34 30/10/10 35/12/12 36/29/29
f 9/35/35 29/36/36 34/31/31 8/30/30
f 29/36/36 28/37/37 33/32/32 34/31/31
f 28/37/37 27/38/38 32/33/33 33/32/32
f 27/38/38 26/39/39 31/34/34 32/33/33
f 26/39/39 25/8/8 30/10/10 31/34/34
f 1/40/40 15/41/41 29/36/36 9/35/35
f 15/41/41 16/42/42 28/37/37 29/36/36
f 16/42/42 17/43/43 27/38/38 28/37/37
f 17/43/43 18/44/44 26/39/39 27/38/38
f 18/44/44 19/5/5 25/8/8 26/39/39
f 5/18/18 49/17/17 24/45/45 3/46/46
f 49/17/17 48/20/20 23/47/47 24/45/45
f 48/20/20 47/22/22 22/48/48 23/47/47
f 47/22/22 46/24/24 21/49/49 22/48/48
f 46/24/24 45/1/1 20/4/4 21/49/49
