# Blender v2.75 (sub 0) OBJ File: 'environment_sculpt.blend'
# www.blender.org
mtllib caveSpike.mtl
o spike_Cube.001
v -0.777423 0.101314 -0.279483
v -0.725996 0.072423 -0.068802
v -0.615611 0.054891 -0.508570
v 0.160835 0.118876 -1.020373
v -0.194101 0.092055 -0.963981
v 0.447175 0.102509 -0.821131
v 0.829576 0.130340 -0.220640
v 0.754519 0.101629 -0.470821
v 0.808493 0.116112 0.030629
v 0.091072 0.135506 0.493609
v 0.451003 0.120813 0.401676
v -0.268148 0.069434 0.335523
v -0.046761 2.355477 -0.052905
v 0.145542 1.868259 -0.083856
v -0.085577 2.008200 -0.163696
v -0.149938 1.940871 0.039452
v 0.029715 1.991686 0.094450
v 0.127443 1.999160 0.015679
v 0.026322 1.881034 -0.173472
v -0.163379 2.047992 -0.115411
v -0.085811 1.980588 0.096072
v -0.564557 0.042612 0.168110
v -0.193260 1.200855 0.137591
v -0.241574 1.174315 0.020195
v -0.215297 1.159365 -0.073908
v -0.430655 0.068784 -0.796331
v -0.156053 1.191172 -0.131947
v -0.040033 1.195856 -0.283633
v 0.069319 1.209532 -0.175643
v 0.743584 0.075688 -0.653718
v 0.250353 1.192634 -0.121921
v 0.298501 1.242756 -0.028216
v 0.257135 1.208959 0.117209
v 0.749274 0.091461 0.234050
v 0.190193 1.201729 0.221208
v 0.109985 1.204022 0.245885
v -0.049161 1.192901 0.196178
v -0.179541 1.145344 0.167793
v -0.180062 1.152482 -0.121284
v 0.235584 1.206692 0.194273
v 0.177657 1.199338 -0.176265
v -0.336699 1.041383 0.002800
v -0.300435 1.027969 0.164129
v -0.316242 0.991116 -0.165862
v 0.034249 0.953815 -0.492556
v -0.125001 0.964327 -0.345818
v 0.180694 0.920708 -0.380781
v 0.412486 0.910563 -0.061417
v 0.341811 0.817316 -0.210448
v 0.363469 0.848303 0.130754
v 0.108513 0.915536 0.360895
v 0.236250 0.868613 0.316716
v -0.070081 0.956760 0.317460
v -0.213841 0.985949 0.265942
v -0.260078 0.945910 -0.278590
v 0.303372 0.850645 -0.337230
v 0.330156 0.833138 0.250715
v -0.472858 0.287051 -0.609064
v 0.559447 0.298050 -0.652335
v 0.588759 0.285857 0.224204
v -0.655788 0.331389 -0.129180
v -0.605151 0.297262 0.084420
v -0.605074 0.307500 -0.400648
v 0.040822 0.331588 -0.861387
v -0.240674 0.312078 -0.735676
v 0.319459 0.319913 -0.761283
v 0.668167 0.326629 -0.203066
v 0.598516 0.286497 -0.421334
v 0.636666 0.302917 0.046221
v 0.105139 0.313475 0.423928
v 0.374543 0.302904 0.349439
v -0.196489 0.315402 0.336699
v -0.443882 0.300599 0.222894
v -0.769545 -0.070053 -0.114118
v -0.729903 -0.095546 0.223219
v -0.783066 -0.037031 -0.501947
v 0.179905 -0.034668 -0.990141
v -0.195855 -0.044489 -0.906087
v 0.408951 -0.060466 -0.975426
v 0.910750 -0.059209 -0.212353
v 0.895287 -0.060506 -0.515457
v 0.921746 -0.052384 0.029212
v 0.123942 -0.039330 0.622535
v 0.455744 -0.046400 0.582633
v -0.241407 -0.037039 0.507787
v -0.541956 -0.046862 0.329285
v -0.599766 -0.046852 -0.785522
v 0.710281 -0.063799 -0.706191
v 0.818616 -0.055459 0.415192
v -0.468208 0.192078 -0.680137
v 0.625776 0.194006 -0.687721
v 0.635719 0.175412 0.173732
v -0.668325 0.237448 -0.169901
v -0.627330 0.182676 0.022975
v -0.617092 0.214462 -0.449689
v 0.078350 0.237482 -0.881225
v -0.219761 0.215262 -0.819668
v 0.375961 0.216636 -0.824155
v 0.705920 0.209809 -0.219846
v 0.641105 0.182649 -0.433453
v 0.685623 0.195679 -0.000040
v 0.089623 0.211123 0.390662
v 0.389116 0.198973 0.313171
v -0.212017 0.215846 0.288505
v -0.463130 0.194454 0.151219
v -0.507485 0.506839 -0.181707
v -0.466636 0.450970 -0.007309
v -0.461553 0.526289 -0.405439
v 0.073959 0.616744 -0.774168
v -0.159229 0.579868 -0.668465
v 0.301310 0.594500 -0.683141
v 0.586502 0.524774 -0.226499
v 0.531176 0.521139 -0.413060
v 0.555354 0.467066 -0.022135
v 0.118150 0.418114 0.278897
v 0.338605 0.421772 0.220768
v -0.131450 0.429802 0.205475
v -0.334942 0.433102 0.110227
v -0.351249 0.539965 -0.573764
v 0.498071 0.563042 -0.597677
v 0.513538 0.427579 0.121150
v -0.546871 0.769988 -0.102657
v -0.507404 0.731913 0.074812
v -0.510105 0.776726 -0.322104
v -0.034059 0.778000 -0.708985
v -0.243410 0.778437 -0.586072
v 0.170868 0.740290 -0.617747
v 0.440697 0.668337 -0.181759
v 0.383943 0.670265 -0.362068
v 0.412066 0.633987 0.028090
v 0.028754 0.648707 0.335620
v 0.223439 0.628010 0.273161
v -0.199378 0.682049 0.272282
v -0.386219 0.705789 0.188718
v -0.415986 0.773374 -0.486705
v 0.348351 0.700129 -0.541192
v 0.375445 0.613770 0.173212
vn -0.955000 0.234100 0.181900
vn -0.480600 0.753900 0.448100
vn -0.489300 0.481200 0.727300
vn -0.891400 0.394700 -0.222800
vn -0.508900 0.798200 -0.322300
vn -0.754300 0.593200 -0.281400
vn -0.570400 0.627700 -0.529800
vn -0.166000 -0.295700 -0.940700
vn -0.665900 0.411500 -0.622300
vn -0.411200 0.030400 -0.911000
vn -0.515900 0.590100 -0.621000
vn 0.385700 0.316400 -0.866700
vn 0.559400 0.373600 -0.740000
vn 0.533900 0.628200 -0.566000
vn 0.335300 0.559800 -0.757700
vn 0.826400 0.538500 -0.164400
vn 0.763500 0.318400 -0.561800
vn 0.787800 0.424400 -0.446400
vn 0.820800 0.390000 -0.417400
vn 0.878300 0.477400 0.025100
vn 0.774200 0.585400 0.240800
vn 0.905000 0.278600 0.321600
vn 0.918700 0.278100 0.280400
vn 0.158900 0.672400 0.722900
vn 0.365400 0.322000 0.873400
vn 0.335700 0.744400 0.577100
vn 0.574500 0.279700 0.769200
vn -0.314500 0.661900 0.680400
vn -0.345500 0.785800 0.512900
vn -0.208500 0.409000 0.888400
vn -0.273500 0.495500 0.824400
vn 0.854700 0.463000 0.234700
vn 0.966000 0.209700 0.151400
vn 0.483600 0.233600 0.843500
vn 0.810500 0.231800 0.537800
vn 0.462400 0.284600 -0.839700
vn 0.446000 0.099800 -0.889400
vn 0.714900 0.149400 -0.683100
vn 0.289700 0.068200 -0.954700
vn -0.911000 0.378700 -0.163100
vn -0.996100 0.086100 -0.019500
vn -0.714600 0.034500 -0.698700
vn -0.704600 0.017800 -0.709400
vn -0.366900 0.376300 0.850800
vn -0.181800 0.141900 0.973000
vn -0.853900 0.117200 0.507100
vn -0.368200 0.120500 0.921900
vn -0.378100 0.001300 0.925800
vn -0.258300 -0.025900 0.965700
vn 0.524500 -0.181900 0.831700
vn 0.275100 -0.178300 0.944700
vn 0.959100 0.097100 0.266000
vn 0.976800 0.064600 0.204200
vn 0.898400 0.419300 -0.130800
vn 0.788900 0.441300 -0.427600
vn 0.468400 0.724100 -0.506100
vn 0.473900 0.650900 -0.593100
vn -0.315900 0.825900 -0.467000
vn -0.338500 0.800100 -0.495300
vn -0.467700 0.792100 -0.392200
vn -0.706000 0.684700 -0.180900
vn -0.663300 0.230900 0.711800
vn -0.818400 0.512100 0.260800
vn -0.972000 0.049200 0.229900
vn -0.588100 -0.333900 0.736600
vn -0.955900 0.219300 -0.195400
vn -0.766800 0.366700 -0.526900
vn -0.309100 0.379600 -0.872000
vn -0.452300 0.523500 -0.722000
vn 0.256400 0.474900 -0.841800
vn 0.407200 0.576800 -0.708100
vn 0.873000 0.360800 -0.328000
vn 0.876000 0.476300 -0.075700
vn 0.936500 0.325900 0.129700
vn 0.917500 0.277800 0.284600
vn 0.233600 -0.311500 0.921100
vn 0.472900 -0.210500 0.855600
vn -0.287000 -0.320100 0.902900
vn -0.385000 -0.415200 0.824200
vn -0.470000 0.415200 0.778900
vn -0.344100 0.582300 0.736600
vn 0.345900 0.809600 0.474200
vn 0.181100 0.795100 0.578800
vn 0.487600 0.839100 0.241000
vn 0.531200 0.841700 0.097300
vn 0.651100 0.756300 -0.064300
vn 0.513900 0.819500 -0.253700
vn 0.487100 0.263400 -0.832700
vn 0.344600 0.633000 -0.693200
vn -0.475200 0.578600 -0.662800
vn -0.175900 0.714800 -0.676900
vn -0.819200 0.215800 -0.531300
vn -0.770500 0.503300 -0.391200
vn -0.691400 0.346800 0.633700
vn -0.835100 0.468500 0.288400
vn -0.643500 0.698200 0.313700
vn -0.421800 0.739400 0.524700
vn -0.804300 0.571800 -0.162100
vn -0.746600 0.451300 -0.488700
vn -0.417300 0.323600 -0.849200
vn -0.475100 0.344700 -0.809600
vn 0.356600 0.255900 -0.898500
vn 0.418800 0.274700 -0.865500
vn 0.902000 0.299700 -0.310900
vn 0.955700 0.262900 -0.132200
vn 0.873500 0.443700 0.200300
vn 0.763000 0.565700 0.312700
vn 0.177000 0.769500 0.613600
vn 0.372200 0.700400 0.609100
vn -0.151600 0.794900 0.587500
vn -0.285500 0.767800 0.573600
vn -0.966600 -0.192500 0.169200
vn -0.671000 -0.307300 0.674800
vn -0.976200 -0.107500 -0.188500
vn -0.851900 -0.015100 -0.523500
vn -0.463400 0.113000 -0.878900
vn -0.479300 0.172300 -0.860600
vn 0.380700 0.596200 -0.706800
vn 0.399800 0.666900 -0.628800
vn 0.657600 0.725200 -0.204300
vn 0.695900 0.718100 0.010300
vn 0.745800 0.619400 0.245300
vn 0.783500 0.530800 0.323000
vn 0.273000 -0.110800 0.955600
vn 0.519900 0.110100 0.847100
vn -0.288500 -0.324500 0.900800
vn -0.412100 -0.328800 0.849800
vn -0.810500 0.542700 0.220400
usemtl None
s off
f 74//1 75//1 2//1 1//1
f 75//2 86//2 22//2 2//2
f 43//3 54//3 38//3 23//3
f 74//4 1//4 3//4 76//4
f 76//5 3//5 26//5 87//5
f 42//6 24//6 25//6 44//6
f 44//7 25//7 39//7 55//7
f 77//8 78//8 5//8 4//8
f 45//9 46//9 27//9 28//9
f 78//10 87//10 26//10 5//10
f 46//11 55//11 39//11 27//11
f 77//12 4//12 6//12 79//12
f 79//13 6//13 30//13 88//13
f 45//14 28//14 29//14 47//14
f 47//15 29//15 41//15 56//15
f 80//16 81//16 8//16 7//16
f 48//17 49//17 31//17 32//17
f 81//18 88//18 30//18 8//18
f 49//19 56//19 41//19 31//19
f 80//20 7//20 9//20 82//20
f 82//21 9//21 34//21 89//21
f 48//22 32//22 33//22 50//22
f 50//23 33//23 40//23 57//23
f 83//24 84//24 11//24 10//24
f 51//25 52//25 35//25 36//25
f 84//26 89//26 34//26 11//26
f 52//27 57//27 40//27 35//27
f 83//28 10//28 12//28 85//28
f 85//29 12//29 22//29 86//29
f 51//30 36//30 37//30 53//30
f 37//31 38//31 54//31 53//31
f 13//32 17//32 18//32 14//32
f 14//33 18//33 33//33 32//33
f 17//34 36//34 35//34 18//34
f 18//35 35//35 40//35 33//35
f 13//36 14//36 19//36 15//36
f 15//37 19//37 29//37 28//37
f 14//38 32//38 31//38 19//38
f 19//39 31//39 41//39 29//39
f 13//40 15//40 20//40 16//40
f 16//41 20//41 25//41 24//41
f 15//42 28//42 27//42 20//42
f 20//43 27//43 39//43 25//43
f 13//44 16//44 21//44 17//44
f 17//45 21//45 37//45 36//45
f 16//46 24//46 23//46 21//46
f 21//47 23//47 38//47 37//47
f 133//48 53//48 54//48 134//48
f 131//49 51//49 53//49 133//49
f 132//50 137//50 57//50 52//50
f 131//51 132//51 52//51 51//51
f 130//52 50//52 57//52 137//52
f 128//53 48//53 50//53 130//53
f 129//54 136//54 56//54 49//54
f 128//55 129//55 49//55 48//55
f 127//56 47//56 56//56 136//56
f 125//57 45//57 47//57 127//57
f 126//58 135//58 55//58 46//58
f 125//59 126//59 46//59 45//59
f 124//60 44//60 55//60 135//60
f 122//61 42//61 44//61 124//61
f 123//62 134//62 54//62 43//62
f 122//63 123//63 43//63 42//63
f 93//64 94//64 62//64 61//64
f 94//65 105//65 73//65 62//65
f 93//66 61//66 63//66 95//66
f 95//67 63//67 58//67 90//67
f 96//68 97//68 65//68 64//68
f 97//69 90//69 58//69 65//69
f 96//70 64//70 66//70 98//70
f 98//71 66//71 59//71 91//71
f 99//72 100//72 68//72 67//72
f 100//73 91//73 59//73 68//73
f 99//74 67//74 69//74 101//74
f 101//75 69//75 60//75 92//75
f 102//76 103//76 71//76 70//76
f 103//77 92//77 60//77 71//77
f 102//78 70//78 72//78 104//78
f 104//79 72//79 73//79 105//79
f 12//80 104//80 105//80 22//80
f 10//81 102//81 104//81 12//81
f 11//82 34//82 92//82 103//82
f 10//83 11//83 103//83 102//83
f 9//84 101//84 92//84 34//84
f 7//85 99//85 101//85 9//85
f 8//86 30//86 91//86 100//86
f 7//87 8//87 100//87 99//87
f 6//88 98//88 91//88 30//88
f 4//89 96//89 98//89 6//89
f 5//90 26//90 90//90 97//90
f 4//91 5//91 97//91 96//91
f 3//92 95//92 90//92 26//92
f 1//93 93//93 95//93 3//93
f 2//94 22//94 105//94 94//94
f 1//95 2//95 94//95 93//95
f 61//96 62//96 107//96 106//96
f 62//97 73//97 118//97 107//97
f 61//98 106//98 108//98 63//98
f 63//99 108//99 119//99 58//99
f 64//100 65//100 110//100 109//100
f 65//101 58//101 119//101 110//101
f 64//102 109//102 111//102 66//102
f 66//103 111//103 120//103 59//103
f 67//104 68//104 113//104 112//104
f 68//105 59//105 120//105 113//105
f 67//106 112//106 114//106 69//106
f 69//107 114//107 121//107 60//107
f 70//108 71//108 116//108 115//108
f 71//109 60//109 121//109 116//109
f 70//110 115//110 117//110 72//110
f 72//111 117//111 118//111 73//111
f 106//112 107//112 123//112 122//112
f 107//113 118//113 134//113 123//113
f 106//114 122//114 124//114 108//114
f 108//115 124//115 135//115 119//115
f 109//116 110//116 126//116 125//116
f 110//117 119//117 135//117 126//117
f 109//118 125//118 127//118 111//118
f 111//119 127//119 136//119 120//119
f 112//120 113//120 129//120 128//120
f 113//121 120//121 136//121 129//121
f 112//122 128//122 130//122 114//122
f 114//123 130//123 137//123 121//123
f 115//124 116//124 132//124 131//124
f 116//125 121//125 137//125 132//125
f 115//126 131//126 133//126 117//126
f 117//127 133//127 134//127 118//127
f 42//128 43//128 23//128 24//128
