# OBJ Exported from DrPetter's Sculptris
# symmetry 0
usemtl (null)
s 0
v 1.827776 -0.156480 0.314479
v 1.228222 -0.409411 -0.072707
v 0.330764 -0.381323 -0.041790
v 0.266365 -0.372817 -0.359210
v 0.649912 -0.052199 0.262579
v 0.902815 -0.028743 0.316215
v 1.994584 -0.170470 -0.277143
v 1.402024 -0.116909 0.239802
v 1.283911 -0.048077 0.023273
v 0.768215 -0.365489 -0.460079
v 1.807159 -0.430155 -0.121236
v 1.487255 -0.462787 0.160264
v 0.582961 -0.432025 0.488849
v 0.856373 -0.486568 0.520647
v 1.085148 -0.447811 0.505910
v 0.120892 -0.423936 -0.773597
v 0.371829 -0.156127 -0.326622
v 0.249585 -0.383877 -0.582549
v 1.738286 -0.094394 -0.270012
v 1.147633 -0.025893 0.272272
v 1.015157 -0.174863 0.491040
v 0.775126 -0.096997 0.477054
v 1.668306 -0.063309 -0.193405
v 2.119992 -0.131290 0.036044
v 1.848805 -0.036992 -0.178951
v 1.283818 -0.190500 0.408269
v 1.684164 -0.120976 0.215473
v 1.589436 -0.209512 0.215717
v 1.661398 -0.024619 0.075499
v 1.186914 -0.020663 -0.222035
v 0.660973 -0.113620 -0.397200
v 0.914065 -0.092511 -0.023209
v 1.989677 -0.389832 0.110974
v 2.002001 -0.354433 -0.159366
v 1.283188 -0.314632 0.401563
v 1.345984 -0.295099 0.258984
v 1.333948 -0.461136 0.249431
v 1.493811 -0.369877 0.244980
v 1.683240 -0.406977 0.268188
v 1.639829 -0.465719 0.020030
v 1.562334 -0.403125 -0.249993
v 0.456028 -0.469353 0.235689
v 0.395560 -0.345285 0.393487
v 0.310050 -0.324054 0.180256
v 0.570339 -0.207349 0.450804
v 0.795953 -0.418836 -0.026044
v 1.241860 -0.327537 0.560136
v 0.766827 -0.268872 0.648413
v 1.003252 -0.344968 0.614328
v 1.033240 -0.454660 0.269667
v 0.709428 -0.482837 0.263689
v 1.244656 -0.373679 -0.575887
v 1.265241 -0.427568 0.394833
v 0.676934 -0.347040 -0.690402
v 0.381864 -0.140626 0.292178
v 0.474848 -0.176414 -0.026298
v 0.326419 -0.224221 -0.149847
v 0.120691 -0.342534 -0.515341
v 0.085482 -0.372491 -0.618316
v 0.198738 -0.108855 -0.473040
v 0.113033 -0.257248 -0.420362
v 0.050989 -0.213571 -0.645070
v 0.201346 -0.098951 -0.671847
v 0.215593 -0.230191 -0.253235
v 0.560352 -0.453358 0.043887
v 0.453179 -0.356403 -0.474224
v 0.522043 -0.435958 -0.225978
v 1.720461 -0.228217 -0.941964
v 1.133242 -0.106396 -1.425096
v 1.621842 -0.097792 -0.397898
v 1.789719 -0.233147 -0.513036
v 1.570727 -0.319364 -0.853899
v 1.438473 -0.243877 -1.157207
v 1.855935 -0.236528 -0.743231
v 1.676615 -0.161263 -0.554006
v 0.788199 -0.043656 -0.847803
v 1.789052 -0.421320 -0.790037
v 1.772954 -0.335016 -0.570574
v 1.785321 -0.378962 -0.322001
v 1.150972 -0.419932 -1.657854
v 1.524005 -0.266466 -1.463289
v 1.813863 -0.405482 -1.174645
v 0.807676 -0.318881 -0.857673
v 0.710460 -0.109271 -1.439984
v 0.337783 -0.186809 -1.720253
v 1.140193 -0.084066 -1.108896
v 1.439464 -0.061047 -0.957948
v 1.809921 -0.128366 -0.335585
v 1.794488 -0.220526 -0.414874
v 1.459539 -0.034736 -0.201421
v 1.730254 -0.199286 -0.679953
v 1.774232 -0.183059 -0.538904
v 1.822155 -0.238262 -0.598609
v 1.746976 -0.139189 -0.452016
v 1.336221 -0.055011 -0.459963
v 1.001158 -0.060662 -0.451855
v 1.536146 -0.127831 -0.689890
v 0.406068 -0.025261 -1.109743
v 0.398887 -0.041362 -0.678277
v 1.207804 -0.116251 -0.763392
v 1.863710 -0.201125 -0.322551
v 1.882312 -0.274980 -0.315414
v 1.955356 -0.374186 -0.861673
v 1.728815 -0.388429 -0.634485
v 1.860706 -0.352722 -0.641046
v 1.779025 -0.282787 -0.517204
v 1.608783 -0.388906 -0.514946
v 1.733795 -0.336887 -0.487672
v 1.789620 -0.298900 -0.395833
v 1.240789 -0.307181 -1.368651
v 0.825870 -0.284416 -1.792886
v 0.986737 -0.163617 -1.686269
v 1.817873 -0.242826 -1.210445
v 1.922672 -0.345667 -1.063718
v 1.495937 -0.161500 -1.272238
v 1.710510 -0.354712 -1.363848
v 1.489069 -0.351423 -1.346411
v 1.361982 -0.332056 -1.540176
v 1.313970 -0.184740 -1.581745
v 1.785852 -0.417952 -0.981435
v 1.644171 -0.340429 -1.142261
v 1.194207 -0.344920 -1.032166
v 0.605097 -0.234570 -1.676194
v 0.572561 -0.359153 -1.691876
v 0.412934 -0.328529 -1.442493
v 0.191416 -0.091916 -1.430253
v 0.049053 -0.259537 -0.900815
v 0.189112 -0.109411 -0.906339
v 0.847939 -0.293679 -1.401234
v 0.239428 -0.328612 -1.006800
v 0.295331 -0.207891 -1.227990
v 0.472153 -0.327355 -0.747344
v 0.511497 -0.286044 -1.122566
vn 0.077209 0.374769 0.923898
vn -0.044527 -0.991543 -0.121901
vn -0.844381 -0.490357 0.215800
vn -0.430593 -0.888217 0.160187
vn -0.246842 0.962843 0.109559
vn 0.018828 0.974180 0.224987
vn 0.615391 0.207973 -0.760290
vn 0.397160 0.608209 0.687274
vn -0.002919 0.994975 0.100082
vn 0.004717 -0.991896 -0.126966
vn 0.181552 -0.968185 -0.172212
vn 0.029731 -0.951153 0.307286
vn -0.438534 -0.630603 0.640335
vn -0.008006 -0.887593 0.460558
vn 0.229643 -0.870719 0.434870
vn -0.440723 -0.889862 -0.117938
vn -0.191286 0.938188 0.288466
vn 0.003671 -0.993807 0.111061
vn 0.075074 0.932589 -0.353047
vn 0.160791 0.943555 0.289568
vn 0.207395 0.697689 0.685724
vn -0.134575 0.824369 0.549824
vn 0.051568 0.971825 -0.229995
vn 0.872805 0.471892 0.124615
vn 0.148065 0.935632 -0.320422
vn 0.703778 0.377167 0.602031
vn -0.414551 0.641678 0.645288
vn -0.131780 0.313695 0.940335
vn -0.016007 0.952256 0.304880
vn -0.059459 0.998223 0.003967
vn -0.095916 0.985862 0.137392
vn -0.137429 0.988418 -0.064373
vn 0.545345 -0.775011 0.319307
vn 0.674617 -0.627709 -0.388423
vn 0.943316 -0.095075 0.317986
vn 0.640208 -0.065925 0.765368
vn 0.273712 -0.843315 0.462495
vn 0.065818 -0.229973 0.970969
vn 0.015644 -0.576949 0.816630
vn 0.059067 -0.998019 -0.021650
vn -0.000953 -0.989877 -0.141922
vn -0.419439 -0.901482 0.106780
vn -0.745549 -0.188781 0.639155
vn -0.998168 -0.033008 0.050704
vn -0.486098 0.495237 0.720034
vn 0.078363 -0.987001 -0.140316
vn 0.669174 -0.069570 0.739842
vn -0.192922 0.191320 0.962381
vn 0.187299 -0.165158 0.968319
vn 0.061707 -0.997083 -0.044919
vn -0.009559 -0.998947 -0.044872
vn -0.018327 -0.995488 -0.093105
vn 0.669833 -0.644846 0.368100
vn -0.016087 -0.992913 -0.117746
vn -0.685190 0.662279 0.303153
vn -0.496134 0.868244 0.001792
vn -0.543762 0.695771 0.469282
vn -0.664528 -0.672379 0.326051
vn -0.666231 -0.701189 0.253910
vn -0.462297 0.841331 0.280080
vn -0.891414 -0.089904 0.444183
vn -0.958048 0.266232 0.106138
vn -0.449668 0.893126 0.011196
vn -0.749723 0.383207 0.539507
vn -0.071131 -0.990037 -0.121521
vn 0.033662 -0.988075 -0.150250
vn -0.063163 -0.988891 -0.134552
vn 0.448138 0.891582 -0.065227
vn 0.113596 0.978287 -0.173350
vn 0.218713 0.952283 -0.212888
vn 0.986850 0.064505 0.148208
vn -0.204892 -0.972545 -0.110339
vn -0.102518 -0.991021 0.085835
vn 0.675998 0.735816 0.040015
vn 0.288933 0.925251 -0.245822
vn 0.068238 0.997578 0.013461
vn 0.008024 -0.993314 0.115165
vn 0.519939 -0.719079 0.461073
vn 0.451890 -0.802302 -0.390009
vn 0.105811 -0.805749 -0.582729
vn 0.602529 -0.034355 -0.797357
vn 0.375601 -0.851440 -0.366025
vn -0.038615 -0.994316 -0.099222
vn 0.014232 0.957272 -0.288839
vn -0.350777 0.157334 -0.923148
vn 0.051041 0.996734 -0.062586
vn 0.199343 0.979813 -0.015160
vn 0.425812 0.699479 -0.573945
vn 0.924167 0.145637 -0.353136
vn 0.084149 0.992930 -0.083716
vn 0.347483 0.929594 -0.122924
vn 0.696761 0.708900 -0.109477
vn 0.867331 0.438557 0.235382
vn 0.524809 0.794817 -0.304701
vn 0.077503 0.982920 -0.166915
vn -0.064385 0.997245 -0.036830
vn 0.274584 0.957953 -0.083244
vn -0.325574 0.944926 -0.033415
vn -0.125458 0.983867 0.127539
vn 0.042104 0.999079 -0.008236
vn 0.555437 0.156048 -0.816785
vn 0.626898 -0.266818 -0.731989
vn 0.960851 -0.276614 0.015818
vn 0.144078 -0.964400 0.221753
vn 0.715284 -0.484522 0.503595
vn 0.897419 -0.360571 0.254219
vn 0.107072 -0.990209 -0.089560
vn 0.672318 -0.740154 0.012659
vn 0.821321 -0.406390 -0.400350
vn 0.021139 -0.985443 0.168686
vn 0.077777 0.095166 -0.992418
vn 0.043095 0.519452 -0.853412
vn 0.707550 0.561118 -0.429559
vn 0.968423 -0.105104 -0.226074
vn 0.337042 0.900643 -0.274308
vn 0.442740 -0.502040 -0.742925
vn -0.067844 -0.997444 -0.022443
vn 0.408324 -0.767780 -0.493746
vn 0.442884 0.529764 -0.723328
vn -0.023562 -0.997494 -0.066717
vn -0.346756 -0.937491 0.029510
vn 0.079720 -0.990245 -0.114274
vn -0.013501 0.573896 -0.818817
vn -0.144397 -0.766423 -0.625896
vn -0.419946 -0.907358 0.018592
vn -0.947180 0.313559 -0.067310
vn -0.869856 -0.004597 -0.493285
vn -0.650314 0.705915 -0.280669
vn 0.013186 -0.999576 -0.025952
vn -0.354086 -0.734463 -0.578953
vn -0.903432 -0.415186 -0.106918
vn 0.085309 -0.990312 -0.109566
vn -0.070087 -0.995200 -0.068296
f 26//26 20//20 21//21
f 6//6 20//20 32//32
f 6//6 22//22 21//21
f 6//6 21//21 20//20
f 6//6 5//5 22//22
f 6//6 32//32 5//5
f 7//7 101//101 88//88
f 1//1 24//24 29//29
f 7//7 25//25 24//24
f 23//23 29//29 25//25
f 24//24 25//25 29//29
f 23//23 25//25 19//19
f 7//7 88//88 25//25
f 19//19 25//25 88//88
f 90//90 9//9 29//29
f 29//29 23//23 90//90
f 70//70 90//90 23//23
f 8//8 26//26 36//36
f 1//1 27//27 28//28
f 8//8 28//28 29//29
f 27//27 29//29 28//28
f 8//8 36//36 28//28
f 1//1 29//29 27//27
f 96//96 32//32 30//30
f 8//8 20//20 26//26
f 8//8 29//29 9//9
f 8//8 9//9 20//20
f 9//9 32//32 20//20
f 32//32 9//9 30//30
f 30//30 9//9 90//90
f 56//56 31//31 17//17
f 32//32 31//31 56//56
f 7//7 102//102 101//101
f 1//1 33//33 24//24
f 11//11 34//34 33//33
f 7//7 24//24 34//34
f 33//33 34//34 24//24
f 11//11 41//41 79//79
f 7//7 34//34 102//102
f 11//11 79//79 34//34
f 34//34 79//79 102//102
f 26//26 35//35 36//36
f 53//53 36//36 35//35
f 12//12 37//37 2//2
f 53//53 50//50 37//37
f 2//2 37//37 50//50
f 1//1 28//28 39//39
f 12//12 39//39 38//38
f 28//28 38//38 39//39
f 53//53 37//37 36//36
f 12//12 38//38 37//37
f 28//28 36//36 38//38
f 37//37 38//38 36//36
f 41//41 2//2 52//52
f 1//1 39//39 33//33
f 12//12 40//40 39//39
f 11//11 33//33 40//40
f 39//39 40//40 33//33
f 12//12 2//2 40//40
f 11//11 40//40 41//41
f 2//2 41//41 40//40
f 3//3 42//42 44//44
f 13//13 43//43 42//42
f 55//55 44//44 43//43
f 42//42 43//43 44//44
f 22//22 5//5 45//45
f 55//55 43//43 45//45
f 13//13 45//45 43//43
f 26//26 21//21 47//47
f 15//15 47//47 49//49
f 21//21 49//49 47//47
f 22//22 48//48 21//21
f 14//14 49//49 48//48
f 48//48 49//49 21//21
f 14//14 50//50 15//15
f 14//14 15//15 49//49
f 3//3 65//65 42//42
f 46//46 51//51 65//65
f 13//13 42//42 51//51
f 65//65 51//51 42//42
f 14//14 51//51 50//50
f 50//50 51//51 46//46
f 22//22 45//45 48//48
f 14//14 48//48 13//13
f 45//45 13//13 48//48
f 14//14 13//13 51//51
f 2//2 10//10 52//52
f 26//26 47//47 35//35
f 15//15 53//53 47//47
f 47//47 53//53 35//35
f 15//15 50//50 53//53
f 2//2 46//46 10//10
f 46//46 2//2 50//50
f 5//5 55//55 45//45
f 5//5 32//32 56//56
f 5//5 56//56 55//55
f 56//56 44//44 55//55
f 3//3 56//56 57//57
f 17//17 57//57 56//56
f 3//3 44//44 56//56
f 62//62 63//63 128//128
f 16//16 132//132 18//18
f 4//4 58//58 18//18
f 16//16 59//59 62//62
f 16//16 18//18 59//59
f 58//58 59//59 18//18
f 60//60 17//17 99//99
f 31//31 99//99 17//17
f 4//4 64//64 61//61
f 17//17 60//60 64//64
f 64//64 60//60 61//61
f 4//4 61//61 58//58
f 60//60 62//62 61//61
f 59//59 58//58 62//62
f 61//61 62//62 58//58
f 60//60 99//99 63//63
f 60//60 63//63 62//62
f 54//54 10//10 132//132
f 17//17 64//64 57//57
f 4//4 3//3 64//64
f 57//57 64//64 3//3
f 4//4 18//18 66//66
f 10//10 66//66 132//132
f 18//18 132//132 66//66
f 4//4 67//67 3//3
f 46//46 65//65 67//67
f 3//3 67//67 65//65
f 46//46 67//67 10//10
f 4//4 66//66 67//67
f 10//10 67//67 66//66
f 84//84 86//86 69//69
f 86//86 115//115 69//69
f 115//115 87//87 68//68
f 87//87 86//86 100//100
f 86//86 87//87 115//115
f 87//87 97//97 68//68
f 97//97 87//87 100//100
f 101//101 89//89 88//88
f 91//91 74//74 68//68
f 93//93 92//92 71//71
f 92//92 91//91 75//75
f 91//91 93//93 74//74
f 93//93 91//91 92//92
f 19//19 70//70 23//23
f 70//70 19//19 88//88
f 92//92 89//89 71//71
f 89//89 94//94 88//88
f 94//94 92//92 75//75
f 92//92 94//94 89//89
f 94//94 70//70 88//88
f 70//70 94//94 75//75
f 100//100 96//96 95//95
f 95//95 30//30 90//90
f 95//95 96//96 30//30
f 97//97 91//91 68//68
f 91//91 97//97 75//75
f 75//75 97//97 70//70
f 70//70 95//95 90//90
f 97//97 95//95 70//70
f 100//100 95//95 97//97
f 128//128 99//99 98//98
f 99//99 128//128 63//63
f 100//100 86//86 76//76
f 76//76 84//84 98//98
f 99//99 76//76 98//98
f 86//86 84//84 76//76
f 31//31 96//96 76//76
f 96//96 31//31 32//32
f 100//100 76//76 96//96
f 99//99 31//31 76//76
f 101//101 102//102 89//89
f 74//74 103//103 68//68
f 103//103 105//105 77//77
f 74//74 105//105 103//103
f 104//104 72//72 77//77
f 106//106 93//93 71//71
f 93//93 105//105 74//74
f 105//105 106//106 78//78
f 106//106 105//105 93//93
f 105//105 104//104 77//77
f 104//104 105//105 78//78
f 107//107 41//41 52//52
f 41//41 107//107 79//79
f 107//107 52//52 72//72
f 89//89 106//106 71//71
f 104//104 107//107 72//72
f 107//107 108//108 79//79
f 108//108 104//104 78//78
f 104//104 108//108 107//107
f 102//102 109//109 89//89
f 79//79 109//109 102//102
f 106//106 108//108 78//78
f 108//108 109//109 79//79
f 109//109 106//106 89//89
f 106//106 109//109 108//108
f 110//110 129//129 80//80
f 112//112 111//111 84//84
f 129//129 112//112 80//80
f 112//112 129//129 111//111
f 113//113 114//114 82//82
f 114//114 113//113 68//68
f 117//117 121//121 73//73
f 121//121 116//116 82//82
f 116//116 117//117 81//81
f 117//117 116//116 121//121
f 113//113 115//115 68//68
f 115//115 116//116 81//81
f 116//116 113//113 82//82
f 113//113 116//116 115//115
f 69//69 112//112 84//84
f 112//112 119//119 80//80
f 69//69 119//119 112//112
f 110//110 117//117 73//73
f 117//117 118//118 81//81
f 118//118 110//110 80//80
f 110//110 118//118 117//117
f 119//119 115//115 81//81
f 115//115 119//119 69//69
f 119//119 118//118 80//80
f 118//118 119//119 81//81
f 83//83 122//122 52//52
f 10//10 83//83 52//52
f 103//103 114//114 68//68
f 114//114 120//120 82//82
f 120//120 103//103 77//77
f 103//103 120//120 114//114
f 121//121 72//72 73//73
f 120//120 121//121 82//82
f 72//72 120//120 77//77
f 120//120 72//72 121//121
f 83//83 129//129 122//122
f 122//122 110//110 73//73
f 110//110 122//122 129//129
f 52//52 122//122 72//72
f 72//72 122//122 73//73
f 98//98 131//131 128//128
f 111//111 123//123 84//84
f 123//123 124//124 85//85
f 124//124 111//111 129//129
f 111//111 124//124 123//123
f 126//126 125//125 131//131
f 125//125 126//126 85//85
f 124//124 125//125 85//85
f 129//129 125//125 124//124
f 98//98 126//126 131//131
f 126//126 84//84 85//85
f 98//98 84//84 126//126
f 84//84 123//123 85//85
f 130//130 132//132 16//16
f 62//62 127//127 16//16
f 128//128 127//127 62//62
f 127//127 130//130 16//16
f 130//130 127//127 128//128
f 10//10 54//54 83//83
f 129//129 83//83 133//133
f 83//83 54//54 132//132
f 128//128 131//131 130//130
f 83//83 132//132 133//133
f 133//133 125//125 129//129
f 130//130 133//133 132//132
f 131//131 133//133 130//130
f 125//125 133//133 131//131
